<svg id="Capa_1" data-name="Capa 1" xmlns="http://www.w3.org/2000/svg" viewBox="0 0 334.91 108.06"><defs><style>.cls-1{fill:#09357a;}</style></defs><path class="cls-1" d="M25.53,46.19H2.19S-1.65,46,.84,49.73L6.63,58.1a.49.49,0,0,0,.4.21h23.4s13.85.71,18-11.54a14.79,14.79,0,0,0-6-15.92L27.84,21a5.84,5.84,0,0,1-2.51-4.93s.44-3.72,5.8-3.72H49.22s2.94.15.33-3.53L44.05.32A.7.7,0,0,0,43.47,0H22.62S5.81,0,5.81,14.09c0,0-.56,8.9,11.6,16.63l10.48,7.89a4.23,4.23,0,0,1,1.5,3.64s-.05,3.94-3.86,3.94"/><path class="cls-1" d="M138.84,46.21H115.51s-3.86-.18-1.36,3.55L119.86,58a.75.75,0,0,0,.61.31h23.26s13.83.71,18-11.48l0-.1a14.76,14.76,0,0,0-6-15.87L141.15,21a5.88,5.88,0,0,1-2.51-4.88s0-.08,0-.13c.09-.52.86-3.64,5.79-3.64h18.07s2.95.14.34-3.53L157.36.34a.76.76,0,0,0-.62-.34h-20.8s-16.83,0-16.83,14.11c0,0-.55,8.89,11.58,16.62l.05,0,10.46,7.88s1.5,1,1.5,3.63c0,0,0,3.94-3.86,3.94"/><path class="cls-1" d="M101.78,0h13s2.27,0,.27,3.2L95.17,32.87a4.09,4.09,0,0,0-.57,2.4v20.3s.2,2.74-2,2.74H77.25s-2.18.16-2.18-2.7V35.27a7.55,7.55,0,0,0-.27-2.4L55.31,3.22S52.87,0,55.84,0H70s2.57-.11,4.52,3.23l9.69,15s1.23,2,2.41,0l9.81-15S98.27,0,101.78,0"/><path class="cls-1" d="M176.06,12.36h9.23s2.62,0,2.62,2.4V56.32s-.09,2,2.55,2h14.83a1.93,1.93,0,0,0,1.88-2V14.76s-.32-2.4,2.77-2.4h14S226,12.6,226,9.52V3.22S226.1,0,223.38,0H169.6s-3.54-.22-1.5,3.22l5,7.62a3.81,3.81,0,0,0,2.93,1.52"/><path class="cls-1" d="M278.28,47.41v8.51a2,2,0,0,1-2.13,2.1H237.06a1.93,1.93,0,0,1-2.14-1.75V2.53c0-2.61,2.82-2.53,2.82-2.53h36.71c4.44,0,1.86,3.22,1.86,3.22l-5.47,7.94a4.49,4.49,0,0,1-3.38,1.42H255.89c-3.19,0-3.16,2.57-3.16,2.57v5.1c0,2.39,2.57,2.32,2.57,2.32h12.06a2,2,0,0,1,2.09,2.26V32.3a2,2,0,0,1-2.09,2.19h-11.7c-2.84,0-2.9,2.35-2.9,2.35V43c0,2.58,2.77,2.42,2.77,2.42h20.64a2,2,0,0,1,2.11,2"/><path class="cls-1" d="M291.2,0a2.92,2.92,0,0,0-2.88,3.22V56s-.17,2.35,2.74,2.35h33.85s3.07,0,4.39-2.16l5.12-8.62s2-2.73-2.19-2.73H310.06s-3.56.17-3.56-3.12V3.22A2.91,2.91,0,0,0,303.36,0Z"/><path class="cls-1" d="M44.55,102.63V86.5h1.88v16.13Z"/><path class="cls-1" d="M61.31,102.63V94.81a3.16,3.16,0,0,0-.67-2.21,2.76,2.76,0,0,0-2.11-.72,3.5,3.5,0,0,0-2.78,1,5.2,5.2,0,0,0-.88,3.39v6.34H53V90.54h1.49l.29,1.66h.09a3.76,3.76,0,0,1,1.58-1.39,5.09,5.09,0,0,1,2.26-.49A4.61,4.61,0,0,1,62,91.37a4.52,4.52,0,0,1,1.1,3.37v7.89Z"/><path class="cls-1" d="M77.64,102.63V94.81A3.16,3.16,0,0,0,77,92.6a2.76,2.76,0,0,0-2.11-.72,3.5,3.5,0,0,0-2.78,1,5.2,5.2,0,0,0-.88,3.39v6.34H69.37V90.54h1.49l.29,1.66h.09a3.76,3.76,0,0,1,1.58-1.39,5.09,5.09,0,0,1,2.26-.49,4.61,4.61,0,0,1,3.29,1.05,4.52,4.52,0,0,1,1.1,3.37v7.89Z"/><path class="cls-1" d="M96.13,96.58a6.61,6.61,0,0,1-1.49,4.61,5.22,5.22,0,0,1-4.11,1.66,5.44,5.44,0,0,1-2.88-.76,5,5,0,0,1-1.94-2.18A7.56,7.56,0,0,1,85,96.58,6.7,6.7,0,0,1,86.5,92a5.25,5.25,0,0,1,4.11-1.65,5.1,5.1,0,0,1,4,1.69A6.62,6.62,0,0,1,96.13,96.58Zm-9.21,0a5.73,5.73,0,0,0,.93,3.53,3.67,3.67,0,0,0,5.45,0,7.06,7.06,0,0,0,0-7,3.25,3.25,0,0,0-2.75-1.19,3.21,3.21,0,0,0-2.71,1.18A5.67,5.67,0,0,0,86.92,96.58Z"/><path class="cls-1" d="M104.46,102.63,99.87,90.54h2l2.6,7.17a33.15,33.15,0,0,1,1,3.27h.09a24.43,24.43,0,0,1,.77-2.42q.65-1.84,2.89-8h2l-4.59,12.09Z"/><path class="cls-1" d="M123,102.63l-.37-1.72h-.09a5,5,0,0,1-1.8,1.54,5.49,5.49,0,0,1-2.25.4,4.06,4.06,0,0,1-2.81-.92,3.39,3.39,0,0,1-1-2.64q0-3.66,5.85-3.84l2.06-.07v-.75a3.08,3.08,0,0,0-.62-2.1,2.53,2.53,0,0,0-2-.68,7.94,7.94,0,0,0-3.41.93l-.57-1.4a8.68,8.68,0,0,1,2-.76,8.22,8.22,0,0,1,2.14-.28,4.6,4.6,0,0,1,3.2,1,4,4,0,0,1,1,3.08v8.25Zm-4.14-1.29a3.68,3.68,0,0,0,2.68-.94,3.42,3.42,0,0,0,1-2.62V96.69l-1.83.07a6.75,6.75,0,0,0-3.15.68,2.05,2.05,0,0,0-1,1.87,1.88,1.88,0,0,0,.6,1.51A2.47,2.47,0,0,0,118.89,101.34Z"/><path class="cls-1" d="M134.52,101.34a5.69,5.69,0,0,0,.94-.07,7.27,7.27,0,0,0,.72-.15v1.4a3.08,3.08,0,0,1-.88.24,6.75,6.75,0,0,1-1,.09q-3.51,0-3.51-3.69V92H129v-.88l1.73-.76.77-2.58h1.06v2.8h3.51V92h-3.51v7.12a2.48,2.48,0,0,0,.52,1.68A1.8,1.8,0,0,0,134.52,101.34Z"/><path class="cls-1" d="M140.9,87.27a1.27,1.27,0,0,1,.31-.93,1.12,1.12,0,0,1,.77-.29,1.1,1.1,0,0,1,.77.3,1.21,1.21,0,0,1,.32.92,1.24,1.24,0,0,1-.32.92,1.1,1.1,0,0,1-.77.3,1.08,1.08,0,0,1-.77-.3A1.28,1.28,0,0,1,140.9,87.27Zm2,15.36h-1.83V90.54h1.83Z"/><path class="cls-1" d="M157.51,102.63V94.81a3.21,3.21,0,0,0-.67-2.21,2.78,2.78,0,0,0-2.11-.72,3.48,3.48,0,0,0-2.78,1,5.2,5.2,0,0,0-.88,3.39v6.34h-1.83V90.54h1.48l.3,1.66h.09a3.7,3.7,0,0,1,1.58-1.39,5.06,5.06,0,0,1,2.26-.49,4.61,4.61,0,0,1,3.29,1.05,4.52,4.52,0,0,1,1.1,3.37v7.89Z"/><path class="cls-1" d="M175.46,90.54V91.7l-2.24.26a3.82,3.82,0,0,1,.55,1,3.73,3.73,0,0,1,.25,1.41,3.6,3.6,0,0,1-1.22,2.84,4.92,4.92,0,0,1-3.33,1,5.37,5.37,0,0,1-1-.08,1.8,1.8,0,0,0-1.17,1.55.8.8,0,0,0,.4.74,3.15,3.15,0,0,0,1.41.23h2.14a4.79,4.79,0,0,1,3,.83,2.86,2.86,0,0,1,1.06,2.41A3.46,3.46,0,0,1,173.7,107a8.66,8.66,0,0,1-4.7,1,6.41,6.41,0,0,1-3.66-.88,2.85,2.85,0,0,1-1.29-2.5,2.78,2.78,0,0,1,.71-1.9,3.62,3.62,0,0,1,2-1.1A1.87,1.87,0,0,1,166,101a1.7,1.7,0,0,1-.32-1,1.93,1.93,0,0,1,.36-1.16,3.62,3.62,0,0,1,1.11-1,3.33,3.33,0,0,1-1.53-1.31,4.35,4.35,0,0,1,.6-5.18,4.87,4.87,0,0,1,3.38-1.08,6.06,6.06,0,0,1,1.71.22Zm-9.64,14.12a1.62,1.62,0,0,0,.83,1.49,4.54,4.54,0,0,0,2.37.51,6.59,6.59,0,0,0,3.41-.69,2.11,2.11,0,0,0,1.11-1.87,1.47,1.47,0,0,0-.61-1.36,4.61,4.61,0,0,0-2.28-.38h-2.19a3,3,0,0,0-2,.59A2.14,2.14,0,0,0,165.82,104.66Zm1-10.25a2.45,2.45,0,0,0,.72,1.92,2.83,2.83,0,0,0,2,.65c1.78,0,2.68-.86,2.68-2.6a2.4,2.4,0,0,0-2.72-2.72,2.68,2.68,0,0,0-2,.69A2.76,2.76,0,0,0,166.81,94.41Z"/><path class="cls-1" d="M195.38,92.82h-2.91v9.81H189.1V92.82h-1.85V91.2l1.85-.9v-.91a4,4,0,0,1,1-3.07,4.74,4.74,0,0,1,3.32-1,8.76,8.76,0,0,1,3.1.52l-.86,2.48a6.08,6.08,0,0,0-1.88-.32,1.21,1.21,0,0,0-1,.42,1.72,1.72,0,0,0-.32,1.09v.77h2.91Z"/><path class="cls-1" d="M211,96.44a6.61,6.61,0,0,1-1.59,4.71,5.73,5.73,0,0,1-4.42,1.7,6.26,6.26,0,0,1-3.13-.77,5.21,5.21,0,0,1-2.09-2.24,7.57,7.57,0,0,1-.73-3.4,6.61,6.61,0,0,1,1.58-4.7A5.82,5.82,0,0,1,205,90.07a6.18,6.18,0,0,1,3.13.77,5.08,5.08,0,0,1,2.08,2.22A7.35,7.35,0,0,1,211,96.44Zm-8.53,0a5.08,5.08,0,0,0,.61,2.77,2.49,2.49,0,0,0,3.89,0,5.3,5.3,0,0,0,.59-2.78,5,5,0,0,0-.6-2.74,2.52,2.52,0,0,0-3.89,0A5.08,5.08,0,0,0,202.45,96.44Z"/><path class="cls-1" d="M223.11,90.07a5.3,5.3,0,0,1,1.14.1L224,93.32a4,4,0,0,0-1-.11,3.57,3.57,0,0,0-2.51.83,3,3,0,0,0-.9,2.32v6.27h-3.37V90.3h2.55l.5,2.07h.17A4.52,4.52,0,0,1,221,90.7,3.81,3.81,0,0,1,223.11,90.07Z"/><path class="cls-1" d="M235.51,90.3h3.69l2.33,6.94a9.8,9.8,0,0,1,.41,2.14H242a9.15,9.15,0,0,1,.48-2.14l2.28-6.94h3.61l-5.22,13.91a6,6,0,0,1-2.05,2.89,5.14,5.14,0,0,1-3.1,1,7.53,7.53,0,0,1-1.71-.19V105.2a5.44,5.44,0,0,0,1.32.15,2.4,2.4,0,0,0,1.56-.55,3.46,3.46,0,0,0,1-1.65l.2-.61Z"/><path class="cls-1" d="M263.8,96.44a6.61,6.61,0,0,1-1.59,4.71,5.71,5.71,0,0,1-4.42,1.7,6.26,6.26,0,0,1-3.13-.77,5.21,5.21,0,0,1-2.09-2.24,7.57,7.57,0,0,1-.73-3.4,6.61,6.61,0,0,1,1.58-4.7,5.82,5.82,0,0,1,4.44-1.67,6.16,6.16,0,0,1,3.13.77,5.16,5.16,0,0,1,2.09,2.22A7.48,7.48,0,0,1,263.8,96.44Zm-8.52,0a5.18,5.18,0,0,0,.6,2.77,2.49,2.49,0,0,0,3.89,0,5.2,5.2,0,0,0,.59-2.78,5.14,5.14,0,0,0-.59-2.74,2.54,2.54,0,0,0-3.9,0A5.09,5.09,0,0,0,255.28,96.44Z"/><path class="cls-1" d="M277.78,102.63l-.45-1.57h-.17a3.56,3.56,0,0,1-1.54,1.32,5.1,5.1,0,0,1-2.26.47,4.3,4.3,0,0,1-3.28-1.16,4.71,4.71,0,0,1-1.1-3.35v-8h3.37v7.2a3.41,3.41,0,0,0,.47,2,1.72,1.72,0,0,0,1.51.67,2.27,2.27,0,0,0,2-.94A5.84,5.84,0,0,0,277,96.1V90.3h3.37v12.33Z"/></svg>